<svg id="UI" xmlns="http://www.w3.org/2000/svg" viewBox="0 0 100 100">
    <defs>
        <style>.help-opacity{opacity:0.63;}.help-color{fill:#dce1e2;}</style>
    </defs>
    <title>icon</title>
    <g class="help-opacity">
        <path class="help-color"
              d="M75.52,27.83A39.09,39.09,0,0,0,50,18.76a39.09,39.09,0,0,0-25.52,9.07C17.6,33.73,13.82,41.58,13.82,49.94A27.35,27.35,0,0,0,17,62.66a31.47,31.47,0,0,0,7.79,9.61c-1.43,3.57-3.45,7.62-4.58,9.81a2.42,2.42,0,0,0,2.14,3.53,2.47,2.47,0,0,0,.56-0.06,68.35,68.35,0,0,0,16.27-5.86A41.52,41.52,0,0,0,50,81.12a39.09,39.09,0,0,0,25.52-9.07c6.88-5.89,10.66-13.75,10.66-22.11S82.4,33.73,75.52,27.83h0ZM50,78.78A39.14,39.14,0,0,1,39.31,77.3a1.17,1.17,0,0,0-.89.1,65.14,65.14,0,0,1-16.08,5.86,0.06,0.06,0,0,1-.08,0,0.07,0.07,0,0,1,0-.08,118.39,118.39,0,0,0,5-10.83A1.17,1.17,0,0,0,26.88,71,29.35,29.35,0,0,1,19,61.58a25,25,0,0,1-2.88-11.64C16.16,34,31.34,21.11,50,21.11S83.84,34,83.84,49.94,68.66,78.78,50,78.78Z"></path>
        <path class="help-color" d="M50,66.43a2.27,2.27,0,1,0,2.27,2.27A2.27,2.27,0,0,0,50,66.43Z"></path>
        <path class="help-color"
              d="M50,31.27c-8.92,0-16.18,6.13-16.18,13.68a11.87,11.87,0,0,0,1.66,6,1.17,1.17,0,1,0,2-1.18,9.56,9.56,0,0,1-1.34-4.86c0-6.25,6.21-11.33,13.83-11.33s13.83,5.08,13.83,11.33a10.21,10.21,0,0,1-3.31,7.35,14.83,14.83,0,0,1-8.42,3.85,3.71,3.71,0,0,0-3.28,3.65v2.66a1.17,1.17,0,1,0,2.34,0V59.79a1.35,1.35,0,0,1,1.22-1.32A17.19,17.19,0,0,0,62.15,54a12.53,12.53,0,0,0,4-9C66.18,37.4,58.92,31.27,50,31.27Z"></path>
    </g>
</svg>
