<svg id="UI" xmlns="http://www.w3.org/2000/svg" viewBox="0 0 100 100"><defs><style>.cls-1{fill:#adc32b;}</style></defs><title>icon</title><path class="cls-1" d="M89.9,35.92H74.82V32.19A1.78,1.78,0,0,0,73,30.41H27.32a18.32,18.32,0,0,0,0,36.64H73a1.78,1.78,0,0,0,1.78-1.78V61.54H89.9a1.78,1.78,0,0,0,1.78-1.78v-22a1.78,1.78,0,0,0-1.78-1.78h0ZM71.26,63.48H27.32a14.75,14.75,0,1,1,0-29.51H71.26V63.48h0ZM88.12,58H74.82V39.49h13.3V58Z"/><rect class="cls-1" x="78.8" y="43.49" width="5.33" height="3.56"/><rect class="cls-1" x="78.8" y="50.41" width="5.33" height="3.56"/><path class="cls-1" d="M65.28,38.22H40.87a10.51,10.51,0,0,0,0,21H65.28a1.78,1.78,0,0,0,1.78-1.78V40A1.78,1.78,0,0,0,65.28,38.22ZM63.5,55.68H40.87a6.95,6.95,0,0,1,0-13.9H63.5v13.9Z"/></svg>