<svg id="UI" xmlns="http://www.w3.org/2000/svg" viewBox="0 0 100 100"><defs><style>.cls-1{fill:#005e9c;}</style></defs><title>icon</title><g id="search"><path class="cls-1" d="M14.8,43A27.62,27.62,0,0,0,55.37,67.39L74.58,86.59h0A8.12,8.12,0,1,0,86.06,75.12h0L66.86,55.89A27.63,27.63,0,1,0,14.8,43ZM58.88,65.15a27.87,27.87,0,0,0,5.74-5.75L83.2,78l0,0a4.05,4.05,0,1,1-5.73,5.73ZM19.41,43a23,23,0,1,1,23,23A23,23,0,0,1,19.41,43Z"/><path class="cls-1" d="M41.28,28a1.15,1.15,0,0,0,1.15,1.15A13.82,13.82,0,0,1,56.25,43a1.15,1.15,0,0,0,2.3,0A16.12,16.12,0,0,0,42.44,26.85,1.15,1.15,0,0,0,41.28,28Z"/></g></svg>