<svg id="UI" xmlns="http://www.w3.org/2000/svg" viewBox="0 0 100 100"><defs><style>.cls-1{fill:#b1b3b4;}.cls-2{fill:#c6c6c8;}.cls-3{fill:#9a9b9d;}.cls-4{fill:#d61f52;}.cls-5{fill:#b8c234;}.cls-6{fill:#f89420;}.cls-7{fill:#868789;}.cls-8{fill:#f2ede2;}.cls-10,.cls-9{fill:#3c3d42;}.cls-10{isolation:isolate;font-size:3.55px;font-family:Arial;}</style></defs><title>icon</title><path id="_Path_" data-name="&lt;Path&gt;" class="cls-1" d="M94.28,65.29a43.22,43.22,0,1,0-86.43,0H94.28Z"/><path id="_Path_2" data-name="&lt;Path&gt;" class="cls-2" d="M51.1,22.08h0A43.22,43.22,0,0,0,7.84,65.29H51.1V22.08Z"/><path id="_Path_3" data-name="&lt;Path&gt;" class="cls-3" d="M92,65.29a41,41,0,1,0-81.92,0H92Z"/><path id="_Path_4" data-name="&lt;Path&gt;" class="cls-1" d="M51.08,24.33h0a41,41,0,0,0-41,41h41v-41Z"/><path id="_Path_5" data-name="&lt;Path&gt;" class="cls-4" d="M70.8,31.18L51.1,65.29H90.48A39.46,39.46,0,0,0,70.8,31.18Z"/><path id="_Path_6" data-name="&lt;Path&gt;" class="cls-5" d="M11.64,65.29H51.1L31.38,31.14A39.36,39.36,0,0,0,11.64,65.29Z"/><path id="_Path_7" data-name="&lt;Path&gt;" class="cls-6" d="M51.06,25.87a39.05,39.05,0,0,0-19.68,5.27L51.1,65.29,70.8,31.18A39.11,39.11,0,0,0,51.06,25.87Z"/><rect class="cls-2" x="7.84" y="65.29" width="43.26" height="3.81"/><rect class="cls-1" x="51.1" y="65.29" width="43.17" height="3.81"/><rect class="cls-7" x="7.84" y="69.11" width="86.43" height="1.19"/><rect id="_Path_8" data-name="&lt;Path&gt;" class="cls-8" x="50.56" y="28.71" width="1.06" height="2.97"/><rect id="_Path_9" data-name="&lt;Path&gt;" class="cls-8" x="33.11" y="33.35" width="1.06" height="2.97" transform="translate(-12.86 21.33) rotate(-29.81)"/><rect id="_Path_10" data-name="&lt;Path&gt;" class="cls-8" x="20.28" y="46.04" width="1.06" height="2.97" transform="translate(-30.71 41.44) rotate(-59.62)"/><rect id="_Path_11" data-name="&lt;Path&gt;" class="cls-8" x="20.28" y="46.04" width="1.06" height="2.97" transform="translate(-30.71 41.44) rotate(-59.62)"/><rect id="_Path_12" data-name="&lt;Path&gt;" class="cls-8" x="15.53" y="61.9" width="1.06" height="2.97" transform="translate(-47.45 78.99) rotate(-89.59)"/><rect id="_Path_13" data-name="&lt;Path&gt;" class="cls-8" x="67.37" y="34.32" width="2.97" height="1.06" transform="translate(4.39 77.27) rotate(-60.19)"/><rect id="_Path_14" data-name="&lt;Path&gt;" class="cls-8" x="80.19" y="47" width="2.97" height="1.06" transform="translate(-12.82 47.83) rotate(-30.38)"/><rect id="_Path_15" data-name="&lt;Path&gt;" class="cls-8" x="84.96" y="62.87" width="2.97" height="1.06" transform="translate(-0.24 0.32) rotate(-0.21)"/><polygon class="cls-9" points="35.27 53.39 31.38 53.88 32.54 57.64 33.51 56.18 43.88 62.85 44.73 61.53 34.35 54.86 35.27 53.39"/><path id="_Path_16" data-name="&lt;Path&gt;" class="cls-2" d="M59.29,65.29a8.21,8.21,0,1,0-16.43,0H59.29Z"/><text class="cls-10" transform="translate(47.49 63.71)">RISK</text></svg>